<svg width="69" height="33" viewBox="0 0 69 33" fill="none" xmlns="http://www.w3.org/2000/svg">
<g filter="url(#filter0_d_209_18)">
<path d="M25.1388 7.3616C22.4309 8.37141 19.7342 10.156 17.4179 12.0467C17.1355 12.2764 17.0658 12.1608 16.9762 12.2153C16.7305 12.3662 16.7079 12.6001 16.5454 12.7324C15.7307 13.4023 15.104 13.9925 14.3611 14.7044C13.6092 15.435 13.6311 14.801 13.3193 14.9909C12.7127 15.3689 13.508 15.2971 13.4203 15.5788C12.8762 16.1419 12.3063 16.7251 11.7377 17.3377C11.8255 17.1472 11.9146 16.9588 12.0074 16.7718C11.7709 17.0412 11.3776 17.3969 11.6505 16.8328C11.5353 16.9124 11.4203 16.9817 11.3031 17.0669C11.4261 17.2291 11.0615 17.7161 11.1205 17.8331C11.1791 17.9489 11.3684 17.6631 11.3752 17.6715C11.4765 17.7726 10.4552 18.7752 10.3791 18.8578C10.1794 19.0541 10.1265 18.7125 9.99852 18.9124C9.77783 19.2594 10.3448 19.3293 9.47845 19.3931C9.52353 19.7008 9.42126 19.6507 9.24403 19.8753C9.2208 19.905 9.33983 19.9532 9.33297 19.9686C9.15997 20.3762 9.16091 19.9703 9.14942 19.9647C8.94597 19.8813 8.77605 20.2915 8.70659 20.3568C7.83751 21.1705 7.20716 21.8144 6.46222 22.8974C6.30774 23.12 5.96081 23.8567 5.79474 24.0659C5.63132 24.2698 5.56996 24.0716 5.43675 24.1508C5.64426 24.5285 5.57475 24.7253 5.11408 25.0331C5.25571 25.3291 5.07858 25.1984 4.94813 25.5359C4.83909 25.817 4.86657 26.4306 4.4631 26.5892C4.67061 26.267 4.53509 26.2367 4.67473 25.8249C4.72094 25.6822 5.44559 24.4184 5.15333 24.3749C5.00048 24.3497 4.87168 24.8337 4.83944 24.837C4.6506 24.8541 4.62172 24.5233 4.80013 24.3507C4.79703 24.4179 4.78823 24.4959 4.78298 24.567C5.22051 24.2021 4.39347 24.1425 5.1593 24.1229C5.25335 24.1205 5.31505 24.1794 5.42974 24.1521C5.40822 24.1197 5.28227 24.1618 5.31302 24.0794C5.3446 23.9954 5.57169 23.9366 5.46514 23.8441C5.31078 23.7081 5.19219 24.0628 5.16805 24.0808C5.16895 24.0817 5.16984 24.0826 5.17074 24.0834C4.95404 24.2389 5.20328 23.7939 5.19937 23.7638C5.17181 23.5645 5.03354 23.6065 5.06567 23.3509C5.08413 23.2049 5.29065 22.9319 5.33956 22.8157C5.38767 22.6996 5.20522 22.8145 5.23137 22.7324C5.25757 22.6503 5.37388 22.5998 5.40491 22.5042C5.41794 22.4631 5.32613 22.4088 5.3336 22.3897C5.4128 22.1839 5.52632 22.4215 5.62484 22.2376C5.68908 22.1169 5.75707 21.6212 5.53742 21.8545C5.59984 21.7148 5.66521 21.5821 5.73138 21.4469C5.65395 21.5094 5.58339 21.5805 5.5024 21.6389C5.69646 21.4269 5.6111 21.222 5.69488 21.0662C5.77881 20.9106 6.04778 20.898 6.06291 20.6793C6.09653 20.2116 5.63 21.12 5.52743 21.2086C5.48715 21.242 5.44558 20.9886 5.45741 20.9612C5.50996 20.8395 5.69651 20.7768 5.74623 20.6901C5.92367 20.3794 5.90802 20.1089 6.06764 19.8105C6.59288 18.8186 7.37682 17.5534 8.01026 16.6575C8.24568 16.3234 8.53807 16.243 8.64409 16.0976C8.89489 15.7554 8.7912 15.631 9.0268 15.3217C9.37931 14.8578 9.99819 14.3301 10.3242 13.9977C10.5497 13.7662 10.625 13.4483 10.6774 13.3833C11.3775 12.499 12.4414 11.3949 13.1171 10.7454C13.4354 10.4365 13.7281 10.4009 13.7943 10.332C14.0877 10.0309 13.9055 9.9984 14.1666 9.78175C14.3077 9.6654 14.4272 9.74897 14.449 9.73691C14.6392 9.63032 14.5487 9.46392 14.6699 9.35013C15.3583 8.70458 16.1555 8.21547 16.9365 7.65952C16.9928 7.61967 17.0365 7.68929 17.0698 7.65955C17.2118 7.5307 17.0642 7.47856 17.2204 7.35401C17.5493 7.09252 17.8897 6.88214 18.2829 6.64143C18.3215 6.61792 18.3963 6.69457 18.482 6.63851C18.5679 6.5825 18.5789 6.45621 18.7175 6.37437C19.0796 6.16076 19.4905 6.05011 19.8672 5.83941C19.9295 5.80445 19.9432 5.65024 20.0373 5.59851C20.3248 5.43919 20.8398 5.29264 21.1048 5.1625C21.9854 4.72656 22.738 4.31066 23.619 3.96896C23.8221 3.89078 24.0421 3.93532 24.1478 3.90017C24.3866 3.82119 24.1705 3.77983 24.4112 3.69511C26.3925 3.00433 28.4939 2.62058 30.6155 2.47967C31.4491 2.42113 32.4669 2.30266 33.2775 2.37851C33.6131 2.4101 33.6631 2.56831 33.8978 2.58725C34.3158 2.62328 34.4109 2.4344 34.859 2.46522C35.2171 2.49134 35.5936 2.74232 35.9578 2.78977C36.3224 2.83807 36.5245 2.68009 36.947 2.74103C37.2951 2.79169 37.7529 2.98348 38.1246 3.06287C41.5373 3.78654 44.7194 5.18783 47.5412 7.13711C48.5367 7.82391 49.6537 8.56679 50.5272 9.46661C50.6089 9.55118 50.3569 9.59001 50.6748 9.78496C50.8451 9.88972 51.1634 9.9346 51.5293 10.2174C53.7108 11.9033 55.5893 14.1617 57.4951 16.1523C60.3354 19.0922 64.0388 21.9333 64.2526 26.0185C64.2604 26.2141 63.8163 26.3717 63.6517 26.3528C63.6832 26.2236 63.7329 26.0908 63.7712 25.9503C63.2127 26.1437 63.3553 26.0861 63.1514 25.6607C63.025 25.3984 62.9388 25.7254 62.7975 25.6324C62.6151 25.5085 61.8679 24.8807 62.286 24.8238C62.1994 24.8123 62.1174 24.8032 62.0327 24.7924C61.6209 24.2719 61.1583 23.765 60.6985 23.3053C60.6179 23.2247 60.5172 23.2899 60.4343 23.2066C60.2107 22.9834 60.1285 22.7356 59.9259 22.4806C59.8157 22.3421 59.6899 22.4049 59.5583 22.2136C59.4294 22.0267 59.582 21.9179 59.2321 21.7933C59.1685 22.0962 58.7562 21.2762 58.5412 21.0301C58.5112 20.9947 58.1039 20.8203 57.9971 20.6497C57.889 20.4774 57.7985 20.1526 57.5379 19.958C57.4157 19.8669 57.2322 19.9031 57.1225 19.7869C57.0453 19.7052 57.0697 19.5078 56.9816 19.3949C56.8935 19.2817 56.6013 19.1259 56.5638 19.086C56.4256 18.9387 56.6491 19.0397 56.5624 18.9319C56.1434 18.4137 55.6569 17.7921 55.155 17.3577C55.0936 17.3043 55.0819 17.4687 55.0715 17.4636C54.5878 17.1654 54.9029 17.271 54.8796 17.0885C54.8588 16.9105 54.0789 16.1909 53.9229 16.3353C54.0872 16.127 53.778 16.1014 53.7301 16.0648C53.5418 15.9196 53.7348 15.7902 53.5218 15.6794C53.4438 15.6388 53.4528 15.8633 53.3915 15.7968C53.2403 15.6329 53.2682 15.3151 53.069 15.0905C53.021 15.0363 52.9281 15.0999 52.8378 15.0091C52.748 14.9179 52.4459 14.4525 52.4693 14.7917C52.3572 14.4335 52.2395 14.4638 51.9628 14.206C51.8929 14.1408 51.9196 13.9258 51.73 13.8309C51.6659 13.7989 51.554 13.9283 51.4753 13.8607C51.2953 13.7069 51.2429 13.4262 51.0178 13.2244C50.5969 12.8467 50.0546 12.5607 49.6227 12.1624C49.5051 12.054 49.643 11.9433 49.4615 11.7974C49.4344 11.776 49.1227 11.7227 49.0032 11.6144C48.932 11.5486 48.5935 11.1642 48.5164 11.098C48.3895 10.9879 48.2673 11.1049 48.2126 11.0249C48.0539 10.7944 48.3681 10.7187 47.9147 10.8061C47.9375 10.5942 47.7746 10.5021 47.8566 10.2806C47.6239 10.4236 47.647 10.1462 47.4241 10.0955C47.2013 10.045 46.7892 10.3533 47.0367 9.89078C46.9195 9.88809 46.5107 9.74957 46.4473 9.71879C46.261 9.62551 46.4321 9.56378 46.2896 9.49592C46.2645 9.48394 46.236 9.58246 46.092 9.48008C45.9992 9.41086 45.2767 8.96381 45.2381 8.92805C44.8159 8.50047 45.5608 9.00355 45.7236 8.98045C45.7281 9.01606 45.7321 9.0515 45.7378 9.08747C45.9315 9.26096 45.9247 8.99485 45.8518 8.88962C45.7787 8.78415 45.5391 8.75596 45.4928 8.6434C45.4697 8.58698 45.6322 8.37203 45.7431 8.47603C45.649 8.32376 45.88 8.36057 45.8658 8.26185C45.851 8.15184 45.2423 7.76691 45.1658 7.89483C45.2793 7.96537 45.4259 8.04421 45.5395 8.11787C45.5589 8.42665 44.666 8.91407 44.4206 8.37943C44.2368 7.99044 44.8398 8.08773 44.0091 7.88096C44.1167 7.94979 44.2002 8.02195 44.2966 8.0867C44.2156 8.26125 44.1518 7.98621 44.0375 7.99457C43.9829 7.99914 44.1692 8.25347 43.9303 8.17673C43.8724 7.83469 43.5953 8.00032 43.2766 7.84228C43.3873 7.84336 43.4982 7.84537 43.6094 7.84774C43.158 7.39155 44.4519 7.98264 43.4426 7.34002C43.5747 7.39656 43.7009 7.46368 43.8354 7.51828C43.8194 7.39642 44.0558 7.18574 44.0284 7.10108C43.9557 6.87837 43.6898 6.85407 43.5143 6.75122C43.4372 6.70634 43.522 6.65916 43.5155 6.65543C43.4098 6.59348 43.3824 6.71053 43.2832 6.67048C43.1589 6.61965 42.8567 6.35093 42.7936 6.33661C42.6322 6.29839 42.7804 6.6217 42.7584 6.63073C42.618 6.68843 42.4664 6.51692 42.4156 6.65479C42.9198 6.76683 44.1606 7.53249 42.8795 7.17089C43.0998 7.54113 42.8607 7.78442 42.3934 7.59129C42.0049 7.43385 42.3052 7.42942 42.166 7.20726C42.1494 7.17848 41.657 6.88493 41.5895 6.96796C41.7037 6.76227 41.613 6.49794 41.824 6.32571C41.855 6.30019 42.0682 6.40822 42.0695 6.19706C42.0704 6.091 42.0434 5.84822 42.1103 5.74191C42.0302 5.8014 41.9442 5.8702 41.8627 5.93342C41.5205 5.81624 41.5089 5.7124 41.3849 5.48863C41.3687 5.55457 41.4317 5.88394 41.2076 5.70173C41.1963 5.69177 41.2226 5.59289 41.1097 5.49464C40.8812 5.29763 40.8339 5.24688 41.1475 5.0483C40.5306 4.99492 40.5217 4.63864 39.9036 4.53144C39.8984 4.93384 40.1317 4.90858 40.6833 5.03244C40.6745 5.12618 40.6539 5.21457 40.6451 5.30935C40.0216 4.86274 40.3539 5.0059 39.8982 5.04307C39.7868 5.05143 39.2828 4.83745 39.3771 5.13868C39.3994 5.2089 39.7204 5.30765 39.6533 5.38634C39.6405 5.40047 39.2401 5.31831 39.2134 5.28479C38.8728 4.86227 39.7129 4.88726 38.4776 4.64142C38.4434 4.63524 38.4021 4.73927 38.3329 4.73625C38.203 4.73061 38.2352 4.6057 38.1177 4.60515C37.9997 4.60468 37.8058 4.73357 37.6796 4.53712C37.4433 4.17809 38.2089 4.19243 38.4877 4.43408C38.7317 4.0819 36.3917 3.5167 36.2336 3.55097C35.5699 3.57853 36.6476 3.68516 36.6795 3.80463C36.6937 3.85342 36.569 4.4063 36.9062 4.10057C37.0075 4.01019 36.7086 3.80078 36.917 3.78275C37.1263 3.76547 37.0132 3.91261 37.0251 3.92698C37.0652 3.97626 37.2862 3.96182 37.308 3.9913C37.6378 4.43777 37.4784 4.95589 37.1136 4.05067C36.8387 4.17608 37.3162 4.57777 36.9982 4.63349C36.6161 4.70258 36.4102 4.40035 36.3667 4.37997C35.8553 4.14511 36.4055 4.62738 35.7734 4.39469C35.4181 4.2683 36.3647 4.23626 35.521 4.12452C34.8126 4.04181 35.1763 4.22907 35.0838 4.51723C35.0619 4.58492 34.6735 4.61838 35.1914 4.65855C35.2169 4.5835 35.2591 4.48582 35.3025 4.41955C35.4227 4.49439 35.5713 4.91272 35.6342 4.93709C35.9452 5.05498 35.9661 4.85435 36.1123 5.12348C36.0246 4.84196 36.2165 5.03723 36.3094 4.9995C36.6556 4.86236 36.271 4.70328 36.9062 5.10546C36.8429 4.9663 36.7864 4.83143 36.7232 4.69375C36.8079 4.7072 36.8927 4.72102 36.9773 4.73538C37.0452 5.02522 37.4878 5.0935 37.0318 5.266C37.4879 5.44982 37.6899 5.44483 37.8475 5.26888C37.8773 5.23537 37.9529 5.23866 38.0379 5.25757C38.0374 5.19644 38.064 5.01519 38.0831 4.99722C38.2548 4.83987 38.3491 5.21841 38.2512 5.32546C38.3079 5.34768 38.352 5.36776 38.3674 5.3754C38.4647 5.42401 38.2312 5.47932 38.3035 5.54154C38.3274 5.56137 38.6226 5.62087 38.6145 5.66853C38.5609 5.97275 38.1581 5.61503 39.0448 6.07587C39.1529 5.81805 38.6944 5.73928 38.8939 5.49257C39.111 5.22739 39.2329 5.71231 39.407 5.36054C39.4077 5.42796 39.4001 5.48156 39.395 5.55642C39.8359 5.52373 39.7367 5.83435 39.8295 5.94181C40.0121 6.14916 41.0442 6.51607 40.2172 5.90818C40.3629 5.93138 40.5063 5.97101 40.6503 5.99947C40.4735 6.55465 40.4767 6.30189 41.0831 6.64088C41.2166 6.71654 41.163 6.97062 41.4174 6.74868C41.2837 7.01423 41.7647 7.02505 41.7889 7.07608C41.9359 7.39521 40.9091 7.30662 40.9889 6.77654C40.7576 6.90387 40.8591 6.65297 40.6719 6.61789C40.4015 6.56849 40.3502 6.60489 40.1191 6.30691C39.7308 6.45913 41.2211 6.85794 40.2199 6.87466C39.2359 6.74744 34.0756 5.78107 32.8681 5.96537C30.6886 6.01138 29.5689 6.21144 27.6706 6.60432C27.4865 6.63075 26.0906 7.05698 26.2869 6.66521C26.314 6.60647 26.9015 6.30792 26.2957 6.21822C26.4471 6.33029 26.1617 6.51773 26.1407 6.54154C25.668 7.07267 26.0355 7.0336 25.1388 7.3616ZM21.1865 5.96687C22.4919 5.38267 21.4596 5.66541 21.5069 5.09094C21.339 5.17253 21.1718 5.25601 21.004 5.34194C21.0621 5.34634 21.1195 5.35118 21.1774 5.35604C21.1776 5.35595 21.1778 5.35584 21.178 5.35575C21.1793 5.55968 21.1818 5.76362 21.1865 5.96687ZM5.14205 21.8966C5.1168 21.815 5.09121 21.7338 5.06978 21.6489C5.18733 21.4992 5.30419 21.3512 5.42176 21.2041C5.44673 21.2465 5.47257 21.2885 5.49758 21.3309C5.37717 21.5167 5.25708 21.7035 5.14205 21.8966ZM38.6945 4.41868C38.8946 4.66369 38.9632 4.34893 39.2532 4.59062C39.2826 4.35209 39.3049 4.11685 39.3292 3.87941C39.0594 3.83451 38.9761 3.90361 38.7095 3.76828C38.7219 3.8507 38.7347 3.93377 38.7456 4.0164C38.7967 4.01394 38.8514 4.01034 38.9006 4.00956C38.9122 4.23388 38.4607 4.13827 38.6935 4.4189C38.6939 4.41883 38.6942 4.41875 38.6945 4.41868ZM41.2631 5.19025C41.3838 5.26915 41.854 5.58679 41.9615 5.5272C42.3323 5.31813 40.7826 4.91341 41.9781 5.08225C41.991 5.03715 42.0135 4.99705 42.0313 4.95445C41.8389 4.85669 41.6452 4.76323 41.4481 4.672C41.3919 4.84737 41.3185 5.01354 41.2631 5.19025ZM25.9274 4.03024C26.1459 3.98764 27.127 3.58571 26.7457 3.46287C26.631 3.42592 26.2467 3.83449 26.0716 3.87071C25.957 3.89388 26.0389 3.69921 25.8325 3.82071C25.8623 3.88783 25.8905 3.96365 25.9279 4.0296C25.9277 4.02982 25.9276 4.03003 25.9274 4.03024ZM25.8064 5.06667C26.0095 4.97423 26.214 4.87665 26.4194 4.78851C26.2136 4.64883 25.9376 4.85457 25.8443 4.60672C25.898 4.56992 25.9512 4.53365 26.0052 4.4973C26.0667 4.53983 26.1272 4.58287 26.1873 4.62611C26.3342 4.43658 26.2035 4.39674 26.5615 4.34542C26.2521 4.01434 26.1451 3.81449 25.6564 4.38101C25.7106 4.1388 25.3905 3.4942 25.2067 4.08182C25.1736 4.19052 25.449 4.16963 25.4581 4.18285C25.5527 4.34794 25.4431 4.5058 25.5382 4.65998C25.5808 4.72962 25.7373 4.68054 25.7922 4.77917C25.8181 4.82737 25.7154 5.01873 25.8064 5.06667ZM25.1026 4.30118C25.1345 4.17267 24.8243 3.99219 24.6427 4.11191C24.3624 4.29773 24.9296 4.36913 25.1026 4.30118ZM5.14159 21.8978C5.14174 21.8974 5.1419 21.897 5.14205 21.8966C5.14214 21.8969 5.14224 21.8972 5.14234 21.8975C5.14209 21.8976 5.14183 21.8977 5.14159 21.8978ZM40.63 4.8116C40.819 4.77839 41.0454 4.87899 41.0822 4.73053C41.1478 4.78737 41.2141 4.84433 41.2791 4.90163C41.2949 4.85877 41.3101 4.81553 41.3258 4.7731C41.1069 4.65744 40.888 4.5449 40.6651 4.43379C40.6529 4.55932 40.6382 4.6845 40.63 4.8116ZM43.0349 5.92456C43.3038 6.06745 43.1608 5.77206 43.2637 5.71005C43.3674 5.64806 43.5797 5.83968 43.6127 5.69678C43.4515 5.61294 43.2825 5.52711 43.1177 5.44553C43.0965 5.60735 43.0602 5.76549 43.0354 5.92482C43.0353 5.92473 43.0351 5.92465 43.0349 5.92456ZM16.2962 9.00984C16.4918 8.91122 16.5204 9.08815 16.7369 8.68472C16.7367 8.68491 16.7364 8.68511 16.7362 8.68529C16.3382 8.83005 15.8708 9.05928 15.6291 9.42583C15.9364 9.38571 15.9945 9.16258 16.2962 9.00984ZM38.1118 3.77797C37.9954 3.87673 38.3672 4.08141 38.4852 3.99423C38.6785 3.85204 38.2913 3.62696 38.1118 3.77797ZM11.236 15.5868C11.3345 16.0704 12.0375 15.8967 12.2839 15.3287C12.3054 15.2786 11.961 15.4906 11.9785 15.3551C11.9805 15.3413 12.1259 15.1869 12.1198 15.1125C12.1137 15.0378 11.9836 14.9975 12.0007 14.8984C12.0314 14.7238 12.3825 14.5824 12.3673 14.4201C12.3652 14.3981 12.1013 14.4438 12.0877 14.4498C11.8684 14.545 11.8939 14.8474 11.8731 14.8735C11.7649 15.0094 11.653 14.8782 11.5937 14.8853C11.482 14.8991 11.4433 15.0604 11.4323 15.0646C11.1449 15.1704 11.5742 14.7344 11.5815 14.6336C11.6013 14.3587 11.35 14.4091 11.6299 13.9513C11.6563 13.9081 12.0635 13.4676 11.4174 13.9046C12.1136 12.5297 10.7469 14.3105 10.654 14.5724C10.6107 14.6862 10.8471 14.6593 10.8579 14.7597C10.883 14.9883 10.7321 15.2145 10.9288 15.3475C11.3428 15.6259 11.3194 15.1482 11.5394 15.0206C11.6049 15.1099 11.6784 15.1856 11.7284 15.2894C11.6673 15.1415 11.2282 15.5496 11.2352 15.5862C11.2355 15.5864 11.2357 15.5866 11.236 15.5868ZM13.3734 12.3857C13.7175 12.2513 13.4794 12.0465 13.824 11.9579C13.8201 11.5673 13.4517 11.9559 13.3959 11.9904C13.1428 12.1438 12.9292 11.9246 12.7873 12.2044C12.9888 12.257 13.1775 12.3258 13.3734 12.3857ZM11.269 14.474C11.2971 14.1996 11.0343 14.5066 11.0005 14.5C10.6392 14.4237 11.4827 13.5508 11.269 14.474ZM27.3857 4.3121C27.4999 4.29805 27.3963 4.16514 27.4864 4.09985C27.575 4.03377 27.9488 4.09183 27.9225 4.00125C27.8967 3.90866 27.2005 3.79856 27.8412 3.6161C27.8089 3.5682 27.8089 3.52782 27.7889 3.48275C27.6053 3.517 27.4285 3.55127 27.2513 3.58873C27.3811 3.7169 27.5128 3.85351 27.6338 3.97961C27.5616 4.11883 27.4751 3.97772 27.4697 3.97883C27.4698 3.97899 27.4698 3.97915 27.4698 3.97931C27.29 4.03015 27.1289 4.34527 27.3857 4.3121ZM18.8168 7.53092C18.9971 7.86745 18.9977 7.35805 19.0705 7.25541C19.1425 7.15284 19.3519 7.1868 19.2138 7.08062C18.9946 7.08528 18.7958 7.49338 18.8171 7.53132C18.817 7.53119 18.8169 7.53105 18.8168 7.53092ZM14.6922 11.1067C14.8442 10.8413 14.7443 10.798 15.0832 10.6445C15.0117 10.5852 14.9387 10.5245 14.8679 10.4664C14.6557 10.6554 14.8507 10.8384 14.5357 10.9831C14.4838 11.0072 14.4242 10.7712 14.2908 10.9894C14.4209 11.0234 14.5598 11.0666 14.6922 11.1067ZM15.5354 9.89902C15.294 10.1254 15.5892 10.8542 15.8222 10.2095C15.8565 10.1142 15.7161 9.73061 15.5354 9.89902ZM24.4959 5.17772C25.0258 5.00976 24.3923 5.10856 24.2135 5.05554C25.4103 4.52398 24.0896 5.1281 23.8253 4.83085C23.7112 4.99136 23.524 5.33417 23.8602 5.27075C24.0001 5.24506 23.9114 5.15851 23.9194 5.15583C24.1696 5.08872 24.2065 5.27232 24.4959 5.17772ZM12.9732 12.8231C12.9839 12.8039 12.8682 12.7389 12.8966 12.6724C12.9253 12.6058 13.096 12.5588 13.05 12.4932C13.0038 12.4267 12.7457 12.6048 12.722 12.7137C12.6987 12.8226 12.8764 12.9956 12.9732 12.8231ZM14.6949 11.5629C14.8412 11.299 14.1711 11.279 14.1331 11.3191C13.7758 11.6949 14.5956 11.4489 14.6949 11.5629ZM23.6007 6.39833C24.1167 5.92086 23.5008 5.72227 23.0254 5.65858C22.9958 5.72719 22.9653 5.79652 22.9368 5.86454C23.0365 5.48316 23.3195 5.01889 22.5323 5.66991C23.0518 5.51235 22.6763 5.77476 22.6811 5.79193C22.8658 6.32859 23.4657 5.77496 23.6002 6.39856C23.6004 6.39848 23.6005 6.39841 23.6007 6.39833ZM12.2421 13.403C12.0244 13.6399 11.6244 14.2365 12.0339 14.149C12.0979 13.9039 12.1607 13.6623 12.2421 13.403ZM33.9688 4.67471C34.185 4.83593 34.3956 4.85476 34.678 4.87947C34.4484 4.64507 34.6173 4.64106 34.7103 4.60155C34.8509 4.54213 34.5316 4.50998 34.5321 4.49661C34.5595 4.3035 34.7693 4.29447 34.3002 4.24929C34.4229 4.1933 34.5452 4.13761 34.6697 4.08408C34.3111 4.03417 34.2389 3.90032 34.0218 3.72429C34.2116 4.12379 33.938 3.85814 33.6585 4.02824C33.5212 4.11332 33.8609 4.59165 33.9697 4.67479C33.9694 4.67477 33.9691 4.67474 33.9688 4.67471ZM24.2565 6.21037C24.2938 6.12189 24.3175 6.01302 24.3503 5.91632C24.4142 5.88368 24.4786 5.85217 24.5426 5.8202C24.5721 5.87389 24.6012 5.93072 24.6311 5.98178C24.7243 5.96589 24.661 5.89941 24.6842 5.88235C24.6843 5.88265 24.6845 5.88296 24.6846 5.88326C25.018 5.64178 25.1789 5.60082 25.5271 5.68348C25.4695 5.50686 25.4118 5.33023 25.3542 5.1536C25.2929 5.19223 25.231 5.23097 25.1698 5.26975C25.1663 5.37629 25.163 5.48289 25.1604 5.58931C25.0664 5.56326 24.9727 5.53799 24.8776 5.51326C24.8282 5.56885 24.7672 5.63092 24.7263 5.68308C24.2406 5.30704 25.0607 5.38521 24.9961 5.18235C24.9562 5.04662 24.2431 5.30989 24.1755 5.44212C24.1661 5.46087 24.4572 5.76251 24.1269 5.67471C24.0765 5.66075 23.7502 4.88848 23.7217 5.63138C23.7186 5.73659 24.0542 6.1602 24.2565 6.21037ZM26.8521 5.64242C26.3202 5.22229 27.9258 5.41099 27.1889 5.13587C27.3143 4.85365 27.2841 4.86374 27.0458 4.69617C27.0246 4.68106 27.1388 4.58441 27.1259 4.57872C26.9218 4.50283 26.7237 4.61907 26.6681 4.4075C26.6227 4.4311 26.58 4.45287 26.5347 4.47677C26.7865 4.62435 26.5037 4.84067 26.43 5.04199C26.396 5.133 26.5282 5.12203 26.5004 5.20116C26.4901 5.22987 26.3016 5.23016 26.314 5.30187C26.3438 5.46328 26.5132 5.64403 26.7256 5.71156C26.7256 5.71172 26.7257 5.71187 26.7257 5.71203C26.7684 5.68945 26.8094 5.66516 26.8521 5.64242ZM18.7634 9.02274C18.5362 8.8215 18.2528 8.91713 18.6167 8.48407C18.5613 8.45171 18.5053 8.42036 18.4495 8.38828C18.3766 8.44571 18.3061 8.5019 18.2317 8.56077C18.5117 9.4306 17.5164 8.94627 18.1495 9.24605C18.2185 9.2785 18.3503 9.08887 18.2843 9.36359C18.2846 9.36355 18.2849 9.3635 18.2853 9.36346C18.4944 9.14075 18.4652 9.03312 18.7634 9.02274ZM20.3446 7.73894C20.6272 6.8377 19.3267 7.95852 19.6584 7.95188C19.6873 7.94835 20.2358 7.45069 20.3446 7.73894ZM16.1999 11.4858C16.4392 11.2894 16.2351 11.0233 16.1321 10.9523C16.0286 10.8812 15.9458 11.1166 15.9123 11.121C15.8018 11.1344 15.9203 10.9744 15.7738 10.9886C15.7259 10.992 15.2322 11.2746 15.2227 11.3042C15.1719 11.4595 15.5122 11.5239 15.5034 11.5749C15.4766 11.7399 15.2471 11.7559 15.3191 11.8902C15.4726 12.1764 15.4927 11.7081 15.5311 11.6663C15.6462 11.5411 15.7542 11.6823 15.8711 11.6246C15.9878 11.5673 16.0082 11.4679 16.0987 11.4045C16.1288 11.3835 16.1873 11.4954 16.1999 11.4858ZM16.5154 10.2808C16.4327 10.6801 17.2051 10.3979 17.24 10.2963C17.3468 9.98305 16.5551 10.0874 16.5154 10.2808ZM25.6237 5.15555C25.3952 5.42041 26.1043 5.35379 26.2771 5.23089C26.2224 5.16558 25.7046 5.06221 25.6237 5.15555ZM23.4386 6.46769C23.6604 6.30865 23.1696 6.06795 22.9625 6.16985C22.9543 6.47358 23.0461 6.37172 23.185 6.3218C23.3237 6.27246 23.2662 6.59265 23.4386 6.46769ZM13.5607 13.6122C13.6041 13.5694 14.1128 12.7259 13.6603 13.0548C13.6257 13.0784 13.184 13.5974 13.1793 13.6657C13.1698 13.7999 13.4454 13.7153 13.5607 13.6122ZM22.4479 7.37998C22.4692 7.10491 22.5991 7.04474 22.3568 6.85529C22.3566 6.85538 22.3565 6.85547 22.3563 6.85555C22.6493 6.61646 22.9078 7.12372 22.9717 7.07947C23.1973 6.9265 22.7943 6.66967 22.8935 6.47716C22.5838 6.76 22.5714 6.46516 22.2852 6.58565C22.2207 6.61281 22.0445 6.88372 22.0551 6.99254C22.0655 7.101 22.3295 7.30684 22.4479 7.37998ZM12.68 14.6521C12.9544 14.4817 12.8687 14.0086 12.5286 14.2929C12.3635 14.4312 12.5113 14.7582 12.68 14.6521ZM41.1981 6.61537C41.1911 6.50407 41.1822 6.39253 41.1705 6.28057C41.2898 6.30273 41.4095 6.32529 41.5292 6.34865C41.4299 6.34143 41.3308 6.33426 41.2313 6.32744C41.4251 6.44461 41.4473 6.65193 41.1986 6.61559C41.1984 6.61552 41.1983 6.61544 41.1981 6.61537ZM48.028 10.5275C48.0527 10.6633 48.3859 10.5345 48.3796 10.5012C48.3282 10.2499 47.9927 10.3384 48.028 10.5275ZM26.3092 5.89716C26.6686 5.83782 26.2983 5.4366 26.0683 5.47001C26.2274 5.51997 26.1043 5.93263 26.3092 5.89716ZM45.7236 8.98045C45.7169 8.92747 45.7099 8.87433 45.6997 8.81919C45.77 8.92971 45.7668 8.97371 45.7236 8.98045ZM13.9766 13.7986C14.0428 13.7828 14.3543 13.5065 14.3606 13.4351C14.3731 13.2841 13.9543 13.3264 13.8792 13.5234C13.8706 13.545 13.9105 13.8135 13.9772 13.798C13.977 13.7982 13.9768 13.7984 13.9766 13.7986ZM41.5835 6.97972C41.5848 6.97519 41.5868 6.97125 41.5895 6.96796C41.5874 6.97177 41.5858 6.97594 41.5835 6.97972ZM53.9094 16.3532C53.9132 16.3463 53.9177 16.3402 53.9229 16.3353C53.9186 16.3409 53.9145 16.3474 53.9094 16.3532ZM16.3484 12.075C16.7594 12.3283 16.8292 11.9383 16.4921 11.9304C16.4737 11.9306 16.3738 12.0533 16.3484 12.075Z" fill="#DAA636"/>
</g>
<defs>
<filter id="filter0_d_209_18" x="0.462891" y="0.353516" width="67.79" height="32.2354" filterUnits="userSpaceOnUse" color-interpolation-filters="sRGB">
<feFlood flood-opacity="0" result="BackgroundImageFix"/>
<feColorMatrix in="SourceAlpha" type="matrix" values="0 0 0 0 0 0 0 0 0 0 0 0 0 0 0 0 0 0 127 0" result="hardAlpha"/>
<feOffset dy="2"/>
<feGaussianBlur stdDeviation="2"/>
<feComposite in2="hardAlpha" operator="out"/>
<feColorMatrix type="matrix" values="0 0 0 0 0.858824 0 0 0 0 0.698039 0 0 0 0 0.262745 0 0 0 0.4 0"/>
<feBlend mode="normal" in2="BackgroundImageFix" result="effect1_dropShadow_209_18"/>
<feBlend mode="normal" in="SourceGraphic" in2="effect1_dropShadow_209_18" result="shape"/>
</filter>
</defs>
</svg>
