<svg width="34" height="34" viewBox="0 0 34 34" fill="none" xmlns="http://www.w3.org/2000/svg">
<path d="M17 32C25.2843 32 32 25.2843 32 17C32 8.71573 25.2843 2 17 2C8.71573 2 2 8.71573 2 17C2 25.2843 8.71573 32 17 32Z" fill="#F4C550" stroke="white" stroke-width="2.5" stroke-linecap="round" stroke-linejoin="round"/>
<path d="M15.1254 20.7952V13.2052C15.1254 12.4852 14.8254 12.2002 14.0604 12.2002H12.1104C11.3454 12.2002 11.0454 12.4852 11.0454 13.2052V20.7952C11.0454 21.5152 11.3454 21.8002 12.1104 21.8002H14.0454C14.8254 21.8002 15.1254 21.5152 15.1254 20.7952Z" fill="#F4C550" stroke="white" stroke-width="1.5" stroke-linecap="round" stroke-linejoin="round"/>
<path d="M22.1905 20.7952V13.2052C22.1905 12.4852 21.8905 12.2002 21.1255 12.2002H19.1905C18.4255 12.2002 18.1255 12.4852 18.1255 13.2052V20.7952C18.1255 21.5152 18.4255 21.8002 19.1905 21.8002H21.1255C21.8905 21.8002 22.1905 21.5152 22.1905 20.7952Z" fill="#F4C550" stroke="white" stroke-width="1.5" stroke-linecap="round" stroke-linejoin="round"/>
</svg>
